<svg id="visual" viewBox="0 0 900 600" width="900" height="600" xmlns="http://www.w3.org/2000/svg" xmlns:xlink="http://www.w3.org/1999/xlink" version="1.1"><rect x="0" y="0" width="900" height="600" fill="#002233"></rect><path d="M0 158L5.3 193C10.7 228 21.3 298 32 332.3C42.7 366.7 53.3 365.3 64 368.2C74.7 371 85.3 378 96.2 371.3C107 364.7 118 344.3 128.8 322.5C139.7 300.7 150.3 277.3 161 274.5C171.7 271.7 182.3 289.3 193 298.2C203.7 307 214.3 307 225 321.8C235.7 336.7 246.3 366.3 257 360.5C267.7 354.7 278.3 313.3 289 317.3C299.7 321.3 310.3 370.7 321.2 396.8C332 423 343 426 353.8 398.8C364.7 371.7 375.3 314.3 386 300.5C396.7 286.7 407.3 316.3 418 300.8C428.7 285.3 439.3 224.7 450 197.2C460.7 169.7 471.3 175.3 482 198.8C492.7 222.3 503.3 263.7 514 284.3C524.7 305 535.3 305 546.2 280.7C557 256.3 568 207.7 578.8 189.2C589.7 170.7 600.3 182.3 611 227.2C621.7 272 632.3 350 643 390C653.7 430 664.3 432 675 427.2C685.7 422.3 696.3 410.7 707 376.3C717.7 342 728.3 285 739 292.7C749.7 300.3 760.3 372.7 771.2 391.5C782 410.3 793 375.7 803.8 362.8C814.7 350 825.3 359 836 374.7C846.7 390.3 857.3 412.7 868 415.8C878.7 419 889.3 403 894.7 395L900 387L900 0L894.7 0C889.3 0 878.7 0 868 0C857.3 0 846.7 0 836 0C825.3 0 814.7 0 803.8 0C793 0 782 0 771.2 0C760.3 0 749.7 0 739 0C728.3 0 717.7 0 707 0C696.3 0 685.7 0 675 0C664.3 0 653.7 0 643 0C632.3 0 621.7 0 611 0C600.3 0 589.7 0 578.8 0C568 0 557 0 546.2 0C535.3 0 524.7 0 514 0C503.3 0 492.7 0 482 0C471.3 0 460.7 0 450 0C439.3 0 428.7 0 418 0C407.3 0 396.7 0 386 0C375.3 0 364.7 0 353.8 0C343 0 332 0 321.2 0C310.3 0 299.7 0 289 0C278.3 0 267.7 0 257 0C246.3 0 235.7 0 225 0C214.3 0 203.7 0 193 0C182.3 0 171.7 0 161 0C150.3 0 139.7 0 128.8 0C118 0 107 0 96.2 0C85.3 0 74.7 0 64 0C53.3 0 42.7 0 32 0C21.3 0 10.7 0 5.3 0L0 0Z" fill="#0066FF" stroke-linecap="round" stroke-linejoin="miter"></path></svg>